<?xml version="1.0" standalone="no"?>
<!DOCTYPE svg PUBLIC "-//W3C//DTD SVG 20010904//EN"
 "http://www.w3.org/TR/2001/REC-SVG-20010904/DTD/svg10.dtd">
<svg version="1.0" xmlns="http://www.w3.org/2000/svg"
 width="800.000000pt" height="800.000000pt" viewBox="0 0 800.000000 800.000000"
 preserveAspectRatio="xMidYMid meet">

<g transform="translate(0.000000,800.000000) scale(0.100000,-0.100000)"
fill="#000000" stroke="none">
<path d="M2830 6010 c-156 -32 -286 -62 -287 -66 -2 -5 -127 -250 -277 -544
l-274 -535 -145 -90 -145 -89 -78 -231 -78 -230 -180 -223 c-98 -123 -185
-226 -192 -229 -7 -2 -57 9 -112 26 -119 37 -126 37 -139 9 -54 -120 -264
-640 -260 -644 3 -3 209 -64 457 -134 l453 -129 319 177 320 177 145 197 c79
109 148 200 152 202 15 9 781 120 787 113 6 -6 -74 -368 -85 -385 -3 -4 -126
-75 -273 -156 l-268 -147 -1 -52 c0 -29 -6 -153 -12 -275 -7 -123 -10 -225 -7
-227 3 -2 220 -67 483 -144 l478 -140 156 90 c85 50 159 87 163 82 4 -4 46
-102 94 -218 49 -115 91 -213 94 -217 6 -5 450 237 468 255 2 2 34 186 69 408
36 222 67 413 70 424 6 26 258 181 276 170 6 -4 80 -69 164 -144 l153 -137
443 -22 444 -22 290 -55 290 -55 261 0 261 0 18 288 18 287 -102 415 c-132
540 -121 500 -132 472 -5 -12 -20 -27 -34 -34 -23 -10 -25 -16 -25 -80 0 -66
2 -71 35 -102 46 -44 48 -85 3 -129 l-31 -32 22 -330 c24 -364 26 -375 44
-375 26 0 57 -45 57 -84 0 -78 -86 -114 -148 -61 l-29 24 -204 -43 c-176 -36
-204 -45 -207 -62 -17 -92 -172 -82 -172 12 0 28 -8 33 -423 231 -394 188
-423 201 -444 187 -38 -24 -91 -18 -122 15 l-28 29 -366 -36 -367 -37 -20 -32
c-11 -18 -34 -39 -52 -46 l-33 -14 -88 -363 -88 -363 23 -24 c34 -36 31 -98
-5 -129 -59 -50 -146 -13 -147 62 0 31 -7 36 -331 219 -299 169 -334 186 -356
176 -82 -38 -162 25 -136 106 6 18 23 35 50 48 l40 20 95 355 c53 195 93 358
89 362 -3 3 -229 108 -501 233 l-494 226 -561 -252 c-709 -319 -645 -288 -645
-318 -1 -71 -91 -105 -147 -57 -61 53 -21 156 62 156 33 0 37 5 284 372 202
299 248 375 241 389 -17 30 -11 84 10 107 23 24 50 33 96 29 28 -2 66 31 422
370 l390 373 -1 46 c-2 39 2 49 26 70 42 36 91 33 129 -8 l30 -32 526 27 c587
31 622 34 622 51 0 25 46 56 82 56 47 0 79 -27 87 -74 l6 -38 689 -359 c379
-197 693 -359 698 -359 4 0 8 5 8 10 0 18 66 43 94 36 37 -9 66 -45 66 -81 l0
-31 275 -51 275 -52 25 24 c24 25 73 33 110 19 19 -8 45 -55 45 -83 0 -17 30
-36 148 -95 133 -66 150 -73 167 -60 22 16 78 18 105 4 15 -8 19 -7 15 2 -2 7
-34 136 -70 286 l-67 273 -230 277 c-126 152 -237 280 -246 284 -21 9 -907
178 -932 178 -10 0 -107 -35 -217 -77 -109 -42 -207 -76 -218 -75 -11 1 -150
26 -310 56 -245 46 -321 57 -485 66 l-195 11 -116 116 -117 115 -158 -6 c-88
-4 -175 -9 -194 -12 -31 -4 -57 8 -205 95 -100 59 -180 100 -195 100 -14 -1
-153 -27 -310 -59z"/>
<path d="M3595 5429 c-269 -15 -505 -28 -522 -28 -18 -1 -33 -5 -33 -9 0 -8
532 -314 556 -320 9 -2 568 351 599 379 13 12 -41 10 -600 -22z"/>
<path d="M4075 5326 c-77 -50 -207 -134 -288 -187 l-148 -96 158 -90 c143 -82
160 -89 178 -77 11 8 29 14 41 14 15 0 25 9 32 28 5 15 49 130 97 256 47 126
83 232 78 236 -4 4 -71 -34 -148 -84z"/>
<path d="M4401 5384 c14 -16 205 -229 424 -474 384 -429 400 -445 434 -445 20
0 50 -6 66 -13 29 -12 39 -7 230 92 211 110 233 128 183 159 -21 14 -1219 638
-1318 687 l-45 22 26 -28z"/>
<path d="M4273 5388 c-6 -7 -52 -123 -103 -257 l-92 -243 17 -37 c10 -20 21
-42 24 -50 7 -14 1046 -373 1067 -368 6 1 -183 218 -419 482 -441 491 -463
512 -494 473z"/>
<path d="M3002 5338 c-7 -7 -35 -13 -62 -13 l-49 0 -394 -375 c-217 -206 -391
-379 -387 -383 8 -10 883 109 910 123 34 18 514 331 527 343 9 9 -52 48 -257
165 -147 83 -270 152 -272 152 -2 0 -10 -6 -16 -12z"/>
<path d="M3361 4863 c-134 -87 -238 -159 -232 -161 10 -3 732 92 789 104 12 2
22 8 22 13 0 5 -62 44 -137 87 -76 43 -152 86 -169 96 l-31 18 -242 -157z"/>
<path d="M3445 4704 c-209 -29 -390 -55 -401 -57 -31 -5 -515 -320 -506 -329
4 -4 45 -24 92 -46 l85 -39 574 258 c316 142 576 261 579 264 9 9 -35 4 -423
-51z"/>
<path d="M4120 4745 c0 -3 730 -672 812 -743 l36 -33 120 172 119 172 -12 36
c-12 35 -16 37 -136 79 -261 91 -939 320 -939 317z"/>
<path d="M3348 4477 c-318 -144 -574 -265 -570 -269 4 -4 218 -104 477 -222
318 -145 472 -211 476 -203 3 7 61 221 129 475 128 482 128 484 80 481 -8 -1
-275 -119 -592 -262z"/>
<path d="M4080 4715 c1 -6 108 -291 239 -635 223 -586 239 -625 263 -628 22
-3 42 22 191 237 92 132 167 242 167 245 0 2 -177 165 -392 362 -216 196 -410
373 -430 393 -21 19 -38 31 -38 26z"/>
<path d="M4006 4658 c-57 -203 -237 -890 -234 -899 2 -6 164 -85 361 -175 310
-141 387 -171 387 -147 0 4 -416 1102 -475 1256 -12 29 -23 19 -39 -35z"/>
<path d="M2503 4576 c-336 -47 -396 -58 -382 -70 2 -2 84 -40 183 -85 l179
-81 211 136 c116 76 215 141 221 145 14 13 -10 11 -412 -45z"/>
<path d="M5575 4511 c-195 -101 -210 -111 -213 -138 -3 -28 10 -37 277 -216
259 -173 311 -200 311 -165 0 9 -112 611 -114 615 -1 1 -12 4 -26 7 -19 5 -75
-20 -235 -103z"/>
<path d="M5878 4615 c-5 -5 107 -614 115 -621 22 -23 53 3 220 183 97 105 177
194 177 197 0 8 -477 246 -493 246 -8 0 -16 -2 -19 -5z"/>
<path d="M6209 4514 l215 -105 34 35 c30 30 33 37 25 62 -9 28 -11 29 -234 71
-123 23 -231 42 -239 42 -8 0 82 -48 199 -105z"/>
<path d="M6635 4470 c-3 -5 9 -38 27 -74 28 -57 36 -66 59 -66 15 0 41 -12 58
-26 30 -25 32 -26 93 -12 34 7 63 18 65 25 5 15 -294 167 -302 153z"/>
<path d="M2076 4455 c-11 -8 -35 -15 -52 -15 -32 0 -40 -10 -278 -362 -134
-200 -243 -364 -241 -366 2 -2 213 132 469 299 257 166 465 303 463 305 -6 6
-330 154 -336 154 -3 0 -15 -7 -25 -15z"/>
<path d="M6492 4421 c-12 -17 -22 -32 -22 -34 0 -9 181 -90 187 -83 4 4 -9 37
-29 74 -34 63 -39 67 -75 70 -33 3 -42 -1 -61 -27z"/>
<path d="M6267 4177 c-91 -100 -165 -183 -163 -184 1 -2 119 48 262 111 234
104 259 117 262 140 2 14 1 26 -1 26 -3 0 -47 20 -99 44 l-95 44 -166 -181z"/>
<path d="M5324 4295 c-3 -8 34 -178 82 -379 111 -459 89 -437 272 -269 247
226 228 205 224 251 l-4 40 -279 186 c-153 102 -281 186 -284 186 -3 0 -8 -7
-11 -15z"/>
<path d="M2091 4040 c-212 -137 -389 -254 -395 -260 -13 -13 -38 -24 524 229
233 105 428 195 433 200 8 8 -143 81 -166 81 -7 0 -185 -113 -396 -250z"/>
<path d="M5217 4258 c-73 -100 -210 -301 -211 -312 -1 -13 433 -413 443 -407
9 6 7 12 -74 346 -40 165 -78 324 -85 353 -14 63 -37 69 -73 20z"/>
<path d="M6874 4254 c-93 -22 -91 -38 12 -125 107 -90 118 -89 122 12 3 73 2
76 -23 87 -14 7 -28 19 -31 27 -4 8 -9 15 -13 14 -3 0 -34 -7 -67 -15z"/>
<path d="M6361 4061 c-157 -69 -278 -127 -270 -129 9 -1 195 11 414 28 219 16
406 30 415 30 44 0 27 31 -55 100 -82 68 -86 70 -125 64 -32 -5 -47 -3 -68 13
l-27 19 -284 -125z"/>
<path d="M6507 3925 c-230 -18 -421 -36 -425 -39 -8 -9 -13 -6 318 -250 167
-124 307 -222 311 -218 4 4 65 116 134 249 125 239 126 242 109 267 -9 15 -19
25 -23 25 -3 -1 -194 -16 -424 -34z"/>
<path d="M4810 3675 c-85 -124 -159 -232 -165 -240 -7 -10 -5 -19 5 -30 13
-13 57 -10 383 23 326 33 370 39 379 56 6 11 7 21 1 25 -5 3 -103 92 -217 196
-114 105 -213 191 -219 192 -7 2 -82 -99 -167 -222z"/>
<path d="M6972 3827 c-18 -34 -77 -148 -132 -253 l-99 -190 144 -107 c79 -59
147 -107 152 -107 33 1 33 13 8 360 -14 189 -25 347 -25 352 0 22 -18 2 -48
-55z"/>
<path d="M5759 3667 c-170 -155 -174 -160 -171 -196 2 -19 4 -37 5 -38 4 -4
841 -403 845 -403 12 0 -21 64 -211 404 l-207 370 -43 11 -44 11 -174 -159z"/>
<path d="M6119 3718 c27 -51 119 -219 204 -373 194 -351 175 -343 287 -129
l78 151 -303 222 c-167 121 -307 221 -310 221 -4 0 16 -42 44 -92z"/>
<path d="M3710 3548 c-24 -90 -67 -248 -96 -353 -48 -177 -50 -191 -35 -208
16 -16 40 -7 459 170 374 159 442 191 442 208 0 17 -62 48 -358 183 -196 89
-360 162 -363 162 -3 0 -26 -73 -49 -162z"/>
<path d="M6642 3197 c-40 -78 -72 -147 -72 -153 0 -32 28 -31 210 7 102 21
195 41 208 44 45 11 22 40 -114 138 -74 54 -141 100 -147 102 -7 3 -42 -53
-85 -138z"/>
<path d="M4047 3121 c-413 -176 -437 -187 -435 -210 3 -21 54 -53 333 -211
l329 -187 38 16 c30 12 40 24 48 51 5 19 46 185 90 368 78 318 81 334 63 348
-10 7 -20 13 -23 13 -3 -1 -202 -85 -443 -188z"/>
</g>
</svg>
